<svg width="118" height="24" viewBox="0 0 118 24" fill="none" xmlns="http://www.w3.org/2000/svg">
<path d="M2.63281 0.28125H4.97656V2.625H2.63281V0.28125ZM4.97656 0.28125H7.32031V2.625H4.97656V0.28125ZM0.289062 2.625H2.63281V4.96875H0.289062V2.625ZM7.32031 2.625H9.66406V4.96875H7.32031V2.625ZM0.289062 4.96875H2.63281V7.3125H0.289062V4.96875ZM2.63281 7.3125H4.97656V9.65625H2.63281V7.3125ZM4.97656 9.65625H7.32031V12H4.97656V9.65625ZM7.32031 12H9.66406V14.3438H7.32031V12ZM0.289062 14.3438H2.63281V16.6875H0.289062V14.3438ZM7.32031 14.3438H9.66406V16.6875H7.32031V14.3438ZM2.63281 16.6875H4.97656V19.0312H2.63281V16.6875ZM4.97656 16.6875H7.32031V19.0312H4.97656V16.6875Z" fill="black"/>
<path d="M12.2891 7.3125H14.6328V9.65625H12.2891V7.3125ZM16.9766 7.3125H19.3203V9.65625H16.9766V7.3125ZM19.3203 7.3125H21.6641V9.65625H19.3203V7.3125ZM21.6641 7.3125H24.0078V9.65625H21.6641V7.3125ZM14.6328 9.65625H16.9766V12H14.6328V9.65625ZM24.0078 9.65625H26.3516V12H24.0078V9.65625ZM14.6328 12H16.9766V14.3438H14.6328V12ZM24.0078 12H26.3516V14.3438H24.0078V12ZM14.6328 14.3438H16.9766V16.6875H14.6328V14.3438ZM24.0078 14.3438H26.3516V16.6875H24.0078V14.3438ZM12.2891 16.6875H14.6328V19.0312H12.2891V16.6875ZM14.6328 16.6875H16.9766V19.0312H14.6328V16.6875ZM16.9766 16.6875H19.3203V19.0312H16.9766V16.6875ZM24.0078 16.6875H26.3516V19.0312H24.0078V16.6875ZM26.3516 16.6875H28.6953V19.0312H26.3516V16.6875Z" fill="black"/>
<path d="M33.8281 4.96875H36.1719V7.3125H33.8281V4.96875ZM36.1719 4.96875H38.5156V7.3125H36.1719V4.96875ZM31.4844 7.3125H33.8281V9.65625H31.4844V7.3125ZM38.5156 7.3125H40.8594V9.65625H38.5156V7.3125ZM36.1719 9.65625H38.5156V12H36.1719V9.65625ZM38.5156 9.65625H40.8594V12H38.5156V9.65625ZM33.8281 12H36.1719V14.3438H33.8281V12ZM38.5156 12H40.8594V14.3438H38.5156V12ZM31.4844 14.3438H33.8281V16.6875H31.4844V14.3438ZM38.5156 14.3438H40.8594V16.6875H38.5156V14.3438ZM40.8594 14.3438H43.2031V16.6875H40.8594V14.3438ZM43.2031 14.3438H45.5469V16.6875H43.2031V14.3438ZM33.8281 16.6875H36.1719V19.0312H33.8281V16.6875ZM36.1719 16.6875H38.5156V19.0312H36.1719V16.6875Z" fill="black"/>
<path d="M48.2891 4.96875H50.6328V7.3125H48.2891V4.96875ZM52.9766 4.96875H55.3203V7.3125H52.9766V4.96875ZM55.3203 4.96875H57.6641V7.3125H55.3203V4.96875ZM57.6641 4.96875H60.0078V7.3125H57.6641V4.96875ZM50.6328 7.3125H52.9766V9.65625H50.6328V7.3125ZM60.0078 7.3125H62.3516V9.65625H60.0078V7.3125ZM50.6328 9.65625H52.9766V12H50.6328V9.65625ZM60.0078 9.65625H62.3516V12H60.0078V9.65625ZM50.6328 12H52.9766V14.3438H50.6328V12ZM60.0078 12H62.3516V14.3438H60.0078V12ZM50.6328 14.3438H52.9766V16.6875H50.6328V14.3438ZM52.9766 14.3438H55.3203V16.6875H52.9766V14.3438ZM55.3203 14.3438H57.6641V16.6875H55.3203V14.3438ZM57.6641 14.3438H60.0078V16.6875H57.6641V14.3438ZM50.6328 16.6875H52.9766V19.0312H50.6328V16.6875ZM50.6328 19.0312H52.9766V21.375H50.6328V19.0312ZM48.2891 21.375H50.6328V23.7188H48.2891V21.375ZM50.6328 21.375H52.9766V23.7188H50.6328V21.375ZM52.9766 21.375H55.3203V23.7188H52.9766V21.375Z" fill="black"/>
<path d="M67.4375 4.96875H69.7812V7.3125H67.4375V4.96875ZM69.7812 4.96875H72.125V7.3125H69.7812V4.96875ZM65.0938 7.3125H67.4375V9.65625H65.0938V7.3125ZM72.125 7.3125H74.4688V9.65625H72.125V7.3125ZM65.0938 9.65625H67.4375V12H65.0938V9.65625ZM67.4375 12H69.7812V14.3438H67.4375V12ZM69.7812 12H72.125V14.3438H69.7812V12ZM72.125 14.3438H74.4688V16.6875H72.125V14.3438ZM65.0938 16.6875H67.4375V19.0312H65.0938V16.6875ZM67.4375 16.6875H69.7812V19.0312H67.4375V16.6875ZM69.7812 16.6875H72.125V19.0312H69.7812V16.6875Z" fill="black"/>
<path d="M86.4688 2.625H88.8125V4.96875H86.4688V2.625ZM91.1562 2.625H93.5V4.96875H91.1562V2.625ZM77.0938 4.96875H79.4375V7.3125H77.0938V4.96875ZM79.4375 4.96875H81.7812V7.3125H79.4375V4.96875ZM86.4688 4.96875H88.8125V7.3125H86.4688V4.96875ZM88.8125 4.96875H91.1562V7.3125H88.8125V4.96875ZM91.1562 4.96875H93.5V7.3125H91.1562V4.96875ZM79.4375 7.3125H81.7812V9.65625H79.4375V7.3125ZM88.8125 7.3125H91.1562V9.65625H88.8125V7.3125ZM79.4375 9.65625H81.7812V12H79.4375V9.65625ZM81.7812 9.65625H84.125V12H81.7812V9.65625ZM84.125 9.65625H86.4688V12H84.125V9.65625ZM79.4375 12H81.7812V14.3438H79.4375V12ZM86.4688 12H88.8125V14.3438H86.4688V12ZM79.4375 14.3438H81.7812V16.6875H79.4375V14.3438ZM86.4688 14.3438H88.8125V16.6875H86.4688V14.3438ZM77.0938 16.6875H79.4375V19.0312H77.0938V16.6875ZM79.4375 16.6875H81.7812V19.0312H79.4375V16.6875ZM86.4688 16.6875H88.8125V19.0312H86.4688V16.6875ZM88.8125 16.6875H91.1562V19.0312H88.8125V16.6875Z" fill="black"/>
<path d="M98.6328 7.3125H100.977V9.65625H98.6328V7.3125ZM100.977 7.3125H103.32V9.65625H100.977V7.3125ZM103.32 7.3125H105.664V9.65625H103.32V7.3125ZM96.2891 9.65625H98.6328V12H96.2891V9.65625ZM105.664 9.65625H108.008V12H105.664V9.65625ZM96.2891 12H98.6328V14.3438H96.2891V12ZM105.664 12H108.008V14.3438H105.664V12ZM96.2891 14.3438H98.6328V16.6875H96.2891V14.3438ZM105.664 14.3438H108.008V16.6875H105.664V14.3438ZM98.6328 16.6875H100.977V19.0312H98.6328V16.6875ZM100.977 16.6875H103.32V19.0312H100.977V16.6875ZM103.32 16.6875H105.664V19.0312H103.32V16.6875Z" fill="black"/>
<path d="M110.68 0.28125H113.023V2.625H110.68V0.28125ZM115.367 0.28125H117.711V2.625H115.367V0.28125ZM113.023 2.625H115.367V4.96875H113.023V2.625ZM113.023 7.3125H115.367V9.65625H113.023V7.3125ZM110.68 9.65625H113.023V12H110.68V9.65625ZM113.023 9.65625H115.367V12H113.023V9.65625ZM115.367 9.65625H117.711V12H115.367V9.65625ZM113.023 12H115.367V14.3438H113.023V12ZM113.023 14.3438H115.367V16.6875H113.023V14.3438ZM113.023 16.6875H115.367V19.0312H113.023V16.6875ZM113.023 19.0312H115.367V21.375H113.023V19.0312ZM115.367 19.0312H117.711V21.375H115.367V19.0312Z" fill="black"/>
</svg>
